<svg width="65" height="62" viewBox="0 0 65 62" fill="none" xmlns="http://www.w3.org/2000/svg">
<path d="M4.62482 35.7469C7.35136 39.2042 14.2254 45.8482 19.9093 44.7659C27.0142 43.413 28.891 40.0006 32.8701 39.6345" stroke="url(#paint0_linear_1_2273)" stroke-width="2"/>
<path d="M23.151 13.7455C27.8669 13.84 37.479 15.3803 38.2001 20.7855C39.1013 27.542 34.5679 31.0881 32.2666 31.8675" stroke="url(#paint1_linear_1_2273)" stroke-width="2"/>
<path d="M23.151 13.7455C27.8669 13.84 37.479 15.3803 38.2001 20.7855C39.1013 27.542 34.5679 31.0881 32.2666 31.8675" stroke="url(#paint2_linear_1_2273)" stroke-width="2"/>
<path d="M22.7938 8.28888C19.9687 11.2181 13.621 12.3449 10.8003 12.5421C4.57586 13.3862 3.86509 18.7529 4.28777 21.3307C1.58714 26.5542 -1.4372 39.3368 8.07039 48.6796C17.578 58.0224 35.9616 55.1287 43.9649 52.514C51.1873 49.7617 54.9225 43.9995 55.8873 41.4625C62.6138 38.8014 63.5621 32.6155 62.6625 30.6699C61.9429 29.1135 62.2316 26.2676 62.4659 25.0393C62.0337 20.2831 55.9704 16.8499 52.9927 15.7279C52.3616 11.944 47.1491 5.57027 42.2358 2.99722C37.3224 0.424166 26.3252 4.62731 22.7938 8.28888Z" fill="url(#paint3_linear_1_2273)"/>
<path d="M51.1103 52.3204C63.2308 41.2257 61.7553 28.5036 57.9945 25.5961C56.8414 24.3269 52.2785 20.044 43.2527 13.0659C31.9704 4.34328 -6.6863 26.1963 4.73066 43.5389C16.1476 60.8816 35.9597 66.1888 51.1103 52.3204Z" fill="#E57881"/>
<path fill-rule="evenodd" clip-rule="evenodd" d="M52.9282 15.4007C53.2448 18.871 52.8125 23.4174 50.4435 28.4646C49.7741 29.9361 48.311 34.0797 47.8134 38.8827C45.7403 43.0239 37.4143 50.6871 20.6949 48.2104C16.0755 47.5695 5.91728 44.2439 1.78939 36.056C2.33713 40.3322 4.12444 44.8022 8.07034 48.6797C17.5779 58.0225 35.9615 55.1288 43.9649 52.5141C51.1872 49.7618 54.9224 43.9996 55.8873 41.4626C62.6138 38.8015 63.5621 32.6156 62.6625 30.67C61.9428 29.1136 62.2316 26.2677 62.4659 25.0394C62.0337 20.2832 55.9703 16.85 52.9927 15.728C52.9748 15.6209 52.9533 15.5118 52.9282 15.4007Z" fill="#ECABA3"/>
<path d="M44.1979 30.6036C42.8234 29.3456 38.4359 24.3682 36.414 22.0368C36.4776 23.8584 33.4559 27.8262 32.9694 28.1825C32.4828 28.5387 24.2347 35.2579 23.5706 35.2913L45.9855 34.1635C45.9624 33.501 45.5725 31.8617 44.1979 30.6036Z" fill="url(#paint4_linear_1_2273)"/>
<ellipse cx="7.97985" cy="7.2912" rx="7.97985" ry="7.2912" transform="matrix(0.998737 -0.0502545 0.0348991 0.999391 17.6889 14.5182)" fill="url(#paint5_linear_1_2273)"/>
<path d="M29.7065 22.4694C30.5458 23.5711 30.3132 25.2757 29.0287 26.2588C27.7442 27.2419 26.0423 27.0177 25.2031 25.916C24.3639 24.8143 24.5964 23.1097 25.881 22.1266C27.1655 21.1436 28.8673 21.3677 29.7065 22.4694Z" fill="#EA8994" stroke="url(#paint6_linear_1_2273)" stroke-width="2"/>
<path d="M20.7096 24.8179C18.1118 22.8251 18.5797 19.3951 19.1384 17.9292C18.3294 18.5782 16.8388 20.6661 17.3483 23.8257C17.8579 26.9853 22.275 31.541 23.4488 31.8137C24.6226 32.0864 27.399 30.6196 30.4669 27.9767C34.8663 24.1869 33.6472 19.024 33.6472 19.024C33.406 16.8795 30.6742 14.8602 29.6722 14.7448C28.8706 14.6524 28.907 15.0598 29.0254 15.275C30.5255 15.3654 31.6085 17.7994 31.9868 19.1076C32.3652 20.4157 31.141 23.4635 29.6929 24.8636C28.2448 26.2636 23.9568 27.3089 20.7096 24.8179Z" fill="url(#paint7_linear_1_2273)"/>
<path d="M8.98472 27.2325C7.78 27.0276 6.87251 28.6659 6.91877 29.9908C6.96503 31.3157 7.09226 34.959 11.743 39.5361C17.0696 44.7784 22.1612 44.1548 24.1743 43.0581C26.2408 41.9034 31.2349 39.4843 34.6792 39.0456C38.1235 38.6068 42.0751 34.9131 43.6203 33.121C43.7767 32.8367 43.6189 32.1257 41.7361 31.5568C39.8534 30.988 31.8182 33.3278 28.036 34.5688C35.1682 29.2329 35.6084 27.5518 36.5006 24.5207C37.2143 22.0959 34.7807 18.1372 33.4177 17.2104C34.4602 18.4851 34.4941 20.9313 34.1298 23.3128C33.2887 28.8112 25.9337 31.5225 23.8331 33.2872C21.7324 35.0519 19.1394 37.0072 14.616 36.0736C10.9972 35.3266 10.3205 32.1422 10.4345 30.6434C10.4532 29.5918 10.1894 27.4373 8.98472 27.2325Z" fill="#F2B9AE"/>
<path d="M44.1185 9.27572C40.6084 3.81176 28.2004 5.92921 22.6668 14.1708C40.3402 10.6271 46.529 25.9103 44.1715 29.8446C42.2854 32.992 42.1675 40.7288 42.3443 44.2038C43.0272 43.1188 44.5589 40.9403 45.2231 40.9069C51.1467 34.3047 48.8675 16.6681 44.1185 9.27572Z" fill="#F2B9AE"/>
<path d="M6.75862 30.1649C6.63169 32.881 7.59413 38.8492 12.4593 40.9933C18.5407 43.6735 16.7085 43.5998 22.0448 43.9949" stroke="url(#paint8_linear_1_2273)"/>
<path d="M8.62142 35.8776C10.9592 40.9028 21.2551 45.1958 30.2888 41.921C39.3225 38.6461 39.2878 37.6525 42.3269 34.1816" stroke="url(#paint9_linear_1_2273)"/>
<path d="M24.7525 26.2732C29.0695 26.056 30.6778 24.482 31.5989 22.279C32.5199 20.0759 33.3311 14.7263 26.6549 14.0669" stroke="url(#paint10_linear_1_2273)"/>
<path d="M24.7525 26.2732C29.0695 26.056 30.6778 24.482 31.5989 22.279C32.5199 20.0759 33.3311 14.7263 26.6549 14.0669" stroke="url(#paint11_linear_1_2273)"/>
<path d="M24.7525 26.2732C29.0695 26.056 30.6778 24.482 31.5989 22.279C32.5199 20.0759 33.3311 14.7263 26.6549 14.0669" stroke="url(#paint12_linear_1_2273)"/>
<path d="M19.6672 23.5432C24.4897 28.2775 29.2691 27.014 30.9577 22.9751C32.6463 18.9362 30.3481 15.0426 23.6719 14.3831" stroke="url(#paint13_linear_1_2273)"/>
<path d="M23.4768 13.5635C24.112 12.702 32.8062 4.46728 39.8665 6.60051C46.9268 8.73373 49.6272 19.3813 48.7888 28.7138" stroke="url(#paint14_linear_1_2273)"/>
<path d="M28.9835 9.30467C43.3865 2.60758 47.4492 18.7946 48.6965 26.064C49.7407 32.1497 44.3077 33.7502 42.0212 44.4828" stroke="white"/>
<path d="M53.3247 15.7114C59.0779 18.5187 68.3511 26.8668 59.4185 37.8011C48.2528 51.469 42.6943 54.2371 36.3907 54.7202" stroke="url(#paint15_linear_1_2273)"/>
<path d="M2.20947 38.0254C3.12061 40.3021 3.33048 51.075 17.4337 54.8446C28.7163 57.8603 42.2305 53.6522 47.5772 51.1712" stroke="url(#paint16_linear_1_2273)"/>
<path d="M36.0298 20.5627C37.6354 22.0856 38.7115 26.8647 30.1715 33.7977M33.7556 17.3592C37.4952 19.6595 40.545 30.7872 20.2902 36.6174" stroke="url(#paint17_linear_1_2273)"/>
<defs>
<linearGradient id="paint0_linear_1_2273" x1="18.6549" y1="35.041" x2="19.1493" y2="44.8668" gradientUnits="userSpaceOnUse">
<stop stop-color="white" stop-opacity="0"/>
<stop offset="1" stop-color="white"/>
</linearGradient>
<linearGradient id="paint1_linear_1_2273" x1="30.5717" y1="13.3721" x2="31.5043" y2="31.9059" gradientUnits="userSpaceOnUse">
<stop stop-color="white" stop-opacity="0"/>
<stop offset="1" stop-color="white"/>
</linearGradient>
<linearGradient id="paint2_linear_1_2273" x1="30.5717" y1="13.3721" x2="31.5043" y2="31.9059" gradientUnits="userSpaceOnUse">
<stop stop-color="white" stop-opacity="0"/>
<stop offset="1" stop-color="white"/>
</linearGradient>
<linearGradient id="paint3_linear_1_2273" x1="9.66288" y1="18.0741" x2="54.2834" y2="45.7379" gradientUnits="userSpaceOnUse">
<stop stop-color="#ED929A"/>
<stop offset="1" stop-color="#DA616C"/>
</linearGradient>
<linearGradient id="paint4_linear_1_2273" x1="40.1883" y1="25.3307" x2="33.8632" y2="36.4982" gradientUnits="userSpaceOnUse">
<stop stop-color="#D9D9D9" stop-opacity="0.37"/>
<stop offset="0.154167" stop-color="#DEA5AB" stop-opacity="0.713219"/>
<stop offset="1" stop-color="#E27A84"/>
</linearGradient>
<linearGradient id="paint5_linear_1_2273" x1="7.97985" y1="0" x2="7.97985" y2="14.5824" gradientUnits="userSpaceOnUse">
<stop stop-color="#F48C94"/>
<stop offset="0.945833" stop-color="#B56C75"/>
</linearGradient>
<linearGradient id="paint6_linear_1_2273" x1="25.2794" y1="21.3369" x2="26.9844" y2="24.5729" gradientUnits="userSpaceOnUse">
<stop stop-color="#F5B7BE"/>
<stop offset="1" stop-color="#EE9CA5" stop-opacity="0"/>
</linearGradient>
<linearGradient id="paint7_linear_1_2273" x1="25.4246" y1="16.9493" x2="26.582" y2="39.951" gradientUnits="userSpaceOnUse">
<stop stop-color="#F1B7AD"/>
<stop offset="1" stop-color="#F2B9AE"/>
</linearGradient>
<linearGradient id="paint8_linear_1_2273" x1="5.84892" y1="30.2107" x2="21.9479" y2="30.2786" gradientUnits="userSpaceOnUse">
<stop offset="0.0104167" stop-color="white" stop-opacity="0"/>
<stop offset="0.239583" stop-color="white"/>
<stop offset="0.817708" stop-color="white"/>
<stop offset="1" stop-color="white" stop-opacity="0"/>
</linearGradient>
<linearGradient id="paint9_linear_1_2273" x1="6.62898" y1="35.9778" x2="42.4581" y2="40.537" gradientUnits="userSpaceOnUse">
<stop offset="0.0104167" stop-color="white" stop-opacity="0"/>
<stop offset="0.239583" stop-color="white"/>
<stop offset="0.817708" stop-color="white"/>
<stop offset="1" stop-color="white" stop-opacity="0"/>
</linearGradient>
<linearGradient id="paint10_linear_1_2273" x1="23.0021" y1="14.2507" x2="23.4633" y2="29.993" gradientUnits="userSpaceOnUse">
<stop offset="0.0104167" stop-color="white" stop-opacity="0"/>
<stop offset="0.239583" stop-color="white"/>
<stop offset="0.817708" stop-color="white"/>
<stop offset="1" stop-color="white" stop-opacity="0"/>
</linearGradient>
<linearGradient id="paint11_linear_1_2273" x1="23.0021" y1="14.2507" x2="23.4633" y2="29.993" gradientUnits="userSpaceOnUse">
<stop offset="0.0104167" stop-color="white" stop-opacity="0"/>
<stop offset="0.239583" stop-color="white"/>
<stop offset="0.817708" stop-color="white"/>
<stop offset="1" stop-color="white" stop-opacity="0"/>
</linearGradient>
<linearGradient id="paint12_linear_1_2273" x1="23.0021" y1="14.2507" x2="23.4633" y2="29.993" gradientUnits="userSpaceOnUse">
<stop offset="0.0104167" stop-color="white" stop-opacity="0"/>
<stop offset="0.239583" stop-color="white"/>
<stop offset="0.817708" stop-color="white"/>
<stop offset="1" stop-color="white" stop-opacity="0"/>
</linearGradient>
<linearGradient id="paint13_linear_1_2273" x1="19.312" y1="22.8975" x2="30.2088" y2="31.5313" gradientUnits="userSpaceOnUse">
<stop offset="0.0104167" stop-color="white" stop-opacity="0"/>
<stop offset="0.279167" stop-color="white"/>
<stop offset="0.817708" stop-color="white"/>
<stop offset="1" stop-color="white" stop-opacity="0"/>
</linearGradient>
<linearGradient id="paint14_linear_1_2273" x1="23.2298" y1="11.2533" x2="35.8643" y2="28.6646" gradientUnits="userSpaceOnUse">
<stop offset="0.0187499" stop-color="white" stop-opacity="0.07"/>
<stop offset="0.560417" stop-color="white"/>
<stop offset="1" stop-color="white" stop-opacity="0"/>
</linearGradient>
<linearGradient id="paint15_linear_1_2273" x1="35.1258" y1="23.7512" x2="57.3283" y2="44.3864" gradientUnits="userSpaceOnUse">
<stop offset="0.0187499" stop-color="white" stop-opacity="0.07"/>
<stop offset="0.560417" stop-color="white"/>
<stop offset="1" stop-color="white" stop-opacity="0"/>
</linearGradient>
<linearGradient id="paint16_linear_1_2273" x1="2.03646" y1="41.6037" x2="8.96131" y2="60.8878" gradientUnits="userSpaceOnUse">
<stop offset="0.0187499" stop-color="white" stop-opacity="0.07"/>
<stop offset="0.560417" stop-color="white"/>
<stop offset="1" stop-color="white" stop-opacity="0"/>
</linearGradient>
<linearGradient id="paint17_linear_1_2273" x1="27.3205" y1="20.7185" x2="36.5873" y2="27.9579" gradientUnits="userSpaceOnUse">
<stop offset="0.0187499" stop-color="white" stop-opacity="0.07"/>
<stop offset="0.560417" stop-color="white"/>
<stop offset="1" stop-color="white" stop-opacity="0"/>
</linearGradient>
</defs>
</svg>
